<?xml version="1.0" standalone="no"?>
<!DOCTYPE svg PUBLIC "-//W3C//DTD SVG 20010904//EN"
 "http://www.w3.org/TR/2001/REC-SVG-20010904/DTD/svg10.dtd">
<svg version="1.0" xmlns="http://www.w3.org/2000/svg"
 width="666.000000pt" height="666.000000pt" viewBox="0 0 666.000000 666.000000"
 preserveAspectRatio="xMidYMid meet">
<metadata>
Created by potrace 1.14, written by Peter Selinger 2001-2017
</metadata>
<g transform="translate(0.000000,666.000000) scale(0.100000,-0.100000)"
fill="#000000" stroke="none">
<path d="M3127 6464 c-1 -2 -31 -5 -67 -9 -73 -7 -144 -17 -215 -29 -40 -7
-111 -22 -145 -31 -9 -3 -85 -19 -90 -20 -3 0 -11 -4 -17 -8 -7 -5 -17 -6 -21
-3 -5 3 -20 -1 -35 -9 -15 -8 -27 -12 -27 -10 0 2 -33 -8 -72 -21 -40 -14 -77
-27 -83 -28 -13 -4 -65 -24 -90 -36 -11 -5 -50 -22 -87 -39 -38 -17 -68 -35
-68 -41 0 -6 8 -25 17 -43 9 -18 18 -34 18 -37 1 -3 19 -42 40 -87 l38 -82 31
13 c17 7 51 23 76 34 25 12 86 37 135 57 50 19 97 39 105 44 21 11 40 3 40
-18 0 -10 3 -21 7 -25 14 -14 11 -36 -6 -36 -10 0 -21 -3 -25 -7 -3 -4 -14 -8
-23 -9 -16 -3 -166 -56 -208 -74 -11 -5 -51 -22 -90 -39 -65 -27 -104 -47
-210 -104 -22 -12 -85 -50 -140 -84 -55 -34 -103 -59 -107 -57 -5 3 -15 18
-23 34 -14 28 -14 30 13 48 33 23 130 77 244 134 l85 43 -58 120 c-32 66 -60
124 -61 129 -9 21 -346 -173 -483 -278 -40 -31 -59 -46 -151 -121 -112 -91
-364 -353 -364 -378 0 -2 48 -44 106 -92 l106 -88 35 39 c19 21 56 63 81 93
26 30 73 81 105 113 l58 59 24 -28 c13 -16 25 -31 25 -34 0 -3 -33 -37 -72
-76 -97 -94 -268 -282 -268 -294 0 -3 -11 -19 -25 -35 -14 -16 -62 -86 -107
-156 -46 -70 -88 -129 -94 -131 -6 -3 -24 5 -40 18 l-29 23 45 63 c59 85 159
218 182 241 18 18 23 14 -156 158 -10 8 -25 21 -33 29 -12 12 -17 11 -31 -5
-36 -40 -119 -151 -152 -204 -19 -30 -37 -57 -40 -60 -35 -31 -265 -504 -285
-588 -3 -9 -18 -60 -34 -112 -48 -157 -47 -156 -9 -165 18 -4 38 -9 43 -10 6
-2 24 -6 40 -9 17 -3 55 -13 85 -21 30 -8 60 -15 66 -15 6 0 17 26 24 58 8 31
15 62 16 67 8 32 57 186 70 222 l16 41 37 -15 c20 -8 37 -16 38 -17 2 -1 -11
-38 -28 -82 -17 -43 -32 -83 -33 -89 -2 -5 -5 -17 -9 -25 -16 -44 -69 -223
-73 -247 -2 -15 -7 -39 -10 -53 -3 -14 -8 -36 -10 -50 -3 -14 -9 -47 -14 -75
-11 -55 -17 -101 -26 -185 -3 -30 -8 -57 -11 -60 -3 -3 -22 -5 -43 -5 l-38 -1
4 41 c2 22 6 51 9 65 3 14 8 41 11 60 4 19 9 44 11 55 2 11 6 30 9 43 9 47 14
68 23 105 8 35 8 37 -18 43 -14 3 -42 10 -61 15 -19 5 -37 8 -40 8 -3 0 -17 4
-31 9 -14 6 -43 13 -63 16 -21 4 -42 8 -46 11 -6 4 -16 -24 -26 -80 -1 -5 -3
-12 -4 -15 -4 -11 -9 -38 -20 -100 -12 -66 -14 -82 -27 -180 -9 -66 -9 -556
-1 -620 13 -97 19 -136 22 -150 1 -8 6 -31 10 -50 4 -19 9 -44 10 -55 2 -11
10 -18 17 -16 8 1 66 14 129 27 150 31 141 27 129 66 -5 18 -12 51 -14 73 -3
22 -7 51 -10 65 -11 51 -18 102 -30 207 -2 18 4 22 37 25 22 2 41 0 44 -3 2
-4 7 -40 10 -81 2 -40 7 -84 9 -98 2 -14 7 -52 10 -85 4 -33 8 -67 10 -75 2
-8 7 -37 11 -65 3 -27 8 -53 11 -58 2 -4 7 -20 9 -35 3 -15 12 -52 21 -82 9
-30 16 -61 16 -67 0 -7 4 -13 9 -13 5 0 7 -4 4 -8 -2 -4 8 -46 24 -92 40 -119
40 -119 4 -135 -17 -7 -36 -10 -41 -6 -5 3 -15 29 -23 56 -7 28 -16 55 -19 60
-3 6 -7 19 -8 29 -2 11 -12 56 -24 100 -11 45 -22 94 -25 111 -3 16 -6 30 -7
31 -1 2 -29 -4 -62 -11 -33 -8 -73 -17 -90 -19 -16 -3 -45 -10 -63 -15 -36
-11 -37 -11 -53 -11 -6 0 -8 -8 -5 -17 3 -10 8 -34 11 -53 7 -39 35 -147 60
-230 10 -30 17 -57 17 -60 0 -3 3 -9 8 -15 4 -5 13 -28 20 -50 30 -94 159
-364 229 -480 23 -37 41 -69 41 -70 0 -10 130 -176 137 -176 4 0 56 37 116 82
l107 81 -35 47 c-19 25 -71 100 -115 166 l-80 120 22 17 c43 32 57 29 80 -15
23 -46 128 -219 137 -227 4 -3 27 -36 53 -73 54 -79 161 -207 263 -312 60 -61
60 -63 35 -90 -13 -14 -27 -25 -32 -25 -10 0 -53 42 -83 81 -121 157 -186 229
-191 215 -3 -9 -11 -16 -18 -16 -6 0 -24 -12 -41 -26 -16 -14 -58 -46 -92 -72
-72 -52 -73 -41 22 -159 90 -113 243 -266 366 -368 133 -109 373 -278 399
-280 3 0 10 -3 15 -7 39 -24 88 -48 98 -48 7 0 40 54 73 121 l62 120 -39 25
c-21 13 -41 24 -43 24 -10 0 -201 114 -204 122 -2 4 -9 8 -16 8 -7 0 -21 8
-30 19 -16 17 -15 20 10 50 l26 31 36 -28 c81 -62 304 -198 397 -241 58 -27
180 -81 195 -86 3 -1 19 -7 35 -14 17 -6 50 -19 75 -28 25 -9 48 -19 51 -22 4
-3 -1 -23 -10 -43 l-17 -36 -109 47 c-61 27 -132 60 -159 75 -27 14 -55 26
-62 26 -7 0 -14 6 -17 13 -8 21 -32 -11 -87 -118 -29 -55 -57 -105 -61 -111
-10 -12 143 -92 271 -142 140 -55 396 -130 505 -147 11 -2 34 -6 50 -10 51
-10 147 -24 220 -30 69 -6 174 -13 176 -11 0 1 3 55 5 121 2 66 6 130 8 142 3
21 -1 23 -38 24 -68 1 -277 17 -311 24 -11 2 -28 4 -38 4 -14 1 -17 7 -13 29
2 15 5 35 5 44 1 12 7 16 24 12 61 -12 147 -24 297 -40 58 -7 344 -7 520 -1
l65 2 3 -34 c2 -19 -2 -37 -8 -41 -6 -4 -97 -7 -202 -7 l-191 0 -4 -33 c-1
-18 -5 -81 -6 -141 l-4 -109 26 -1 c133 -5 342 3 426 16 17 3 48 7 69 10 21 3
48 7 60 10 22 5 66 13 101 19 39 7 81 16 140 31 33 9 69 17 79 20 44 10 208
68 272 95 59 25 69 33 66 52 -1 12 -7 25 -13 29 -6 3 -10 9 -10 13 1 8 -8 35
-24 71 -8 17 -23 51 -34 78 -11 26 -23 47 -26 47 -4 0 -30 -11 -58 -24 -29
-13 -74 -31 -101 -40 -27 -9 -56 -21 -66 -26 -9 -5 -28 -11 -41 -14 -13 -3
-42 -12 -64 -20 -46 -17 -54 -12 -61 35 l-6 34 64 18 c34 10 68 19 73 20 6 2
48 16 95 32 47 16 87 30 90 30 25 7 201 86 248 112 23 13 42 20 42 16 0 -4 4
-3 8 3 4 6 43 30 87 54 44 23 87 49 96 57 15 13 19 11 39 -17 12 -17 20 -37
17 -44 -3 -7 -36 -28 -74 -46 -37 -19 -71 -38 -74 -43 -3 -5 -9 -8 -13 -7 -6
1 -64 -24 -163 -70 l-32 -15 54 -125 c29 -68 57 -126 63 -128 8 -2 142 55 182
78 8 5 42 23 75 40 60 31 314 199 368 242 129 103 175 144 265 234 56 56 102
106 102 110 0 4 8 13 18 20 15 13 16 15 1 27 -17 13 -164 144 -185 165 -11 11
-19 6 -46 -25 -18 -21 -81 -87 -141 -147 l-107 -110 -31 31 -31 31 33 28 c18
16 97 92 174 169 133 132 247 268 344 413 23 34 44 62 47 62 13 0 64 -35 64
-43 0 -8 -114 -164 -129 -177 -4 -3 -26 -30 -51 -60 -25 -30 -51 -60 -58 -65
-14 -11 3 -29 138 -146 47 -42 68 -54 75 -45 6 6 26 30 45 52 63 72 75 88 136
174 67 95 136 206 134 216 -1 4 3 10 8 13 15 10 126 229 171 339 33 82 68 179
86 242 14 47 17 62 13 66 -7 6 -135 44 -173 51 -16 3 -36 10 -42 15 -7 6 -13
7 -13 3 0 -4 -6 -2 -14 4 -10 9 -16 8 -26 -4 -7 -8 -10 -15 -6 -15 4 0 0 -13
-9 -30 -9 -16 -13 -30 -11 -30 3 0 -7 -33 -20 -73 -14 -39 -26 -76 -28 -82 -1
-5 -4 -14 -7 -20 -4 -5 -14 -34 -23 -62 -10 -29 -21 -55 -26 -58 -5 -3 -24 2
-43 11 l-35 17 42 101 c59 142 126 339 141 416 3 14 16 77 29 140 21 99 34
176 36 202 0 7 67 1 81 -8 5 -2 -26 -162 -47 -239 -3 -11 -7 -31 -10 -44 -3
-13 -9 -32 -15 -43 -5 -10 -7 -18 -5 -18 3 0 1 -11 -4 -25 -9 -23 -7 -25 33
-36 38 -10 125 -36 200 -59 25 -8 29 -6 38 18 18 47 53 199 69 302 6 36 13 76
15 90 25 141 25 569 1 742 -16 113 -15 110 -55 104 -20 -2 -43 -7 -51 -10 -8
-3 -35 -8 -60 -11 -25 -3 -56 -8 -70 -10 -14 -1 -33 -3 -43 -4 -16 -1 -18 -7
-13 -38 3 -21 8 -58 11 -83 2 -25 6 -54 9 -65 2 -11 7 -58 11 -105 4 -47 9
-87 10 -90 2 -3 0 -11 -3 -17 -9 -15 -69 -26 -76 -14 -3 5 -8 55 -11 112 -7
139 -40 413 -52 432 -2 4 -7 20 -9 35 -9 49 -66 267 -75 284 -10 18 11 35 51
43 21 4 29 -3 36 -37 3 -13 6 -27 8 -33 2 -5 7 -28 11 -50 5 -22 10 -42 10
-45 1 -3 5 -16 8 -30 4 -14 9 -36 11 -50 5 -28 23 -118 25 -125 0 -3 1 -10 1
-16 0 -6 8 -8 18 -5 9 3 35 7 57 10 22 4 63 11 90 16 28 5 63 12 79 14 16 3
30 7 32 9 2 2 -1 28 -6 58 -6 30 -13 68 -16 84 -30 172 -138 474 -248 695 -67
132 -118 217 -227 373 -6 9 -40 -5 -63 -25 -6 -5 -48 -36 -94 -69 -81 -59 -83
-61 -68 -82 57 -80 188 -281 195 -300 7 -18 3 -25 -21 -39 -15 -10 -32 -18
-36 -18 -5 0 -23 28 -42 63 -75 140 -227 370 -291 439 -13 14 -42 47 -64 74
-22 26 -61 70 -87 98 -49 52 -50 68 -5 95 17 11 23 8 52 -23 18 -20 44 -51 58
-70 15 -19 32 -40 39 -48 7 -7 26 -31 43 -53 16 -22 33 -44 37 -50 4 -5 16
-21 26 -34 l18 -24 65 46 c35 25 72 54 82 64 10 10 21 18 25 18 12 1 52 30 52
37 0 7 -67 106 -80 118 -3 3 -29 34 -59 70 -195 235 -551 524 -805 654 l-89
46 -64 -125 c-68 -135 -68 -135 -54 -135 5 0 56 -26 113 -58 57 -33 108 -61
113 -63 23 -9 115 -71 115 -77 0 -4 -10 -20 -23 -35 l-22 -29 -33 19 c-17 10
-32 21 -32 26 0 4 -4 7 -9 7 -5 0 -37 18 -70 40 -33 22 -65 40 -71 40 -5 0
-10 3 -10 8 0 4 -10 12 -23 18 -12 6 -49 26 -82 45 -73 42 -238 115 -360 160
-115 42 -116 43 -103 80 5 16 14 31 18 34 11 7 129 -40 263 -105 60 -29 109
-51 110 -49 2 2 31 59 65 126 l62 121 -42 24 c-24 13 -74 37 -113 53 -38 16
-74 32 -80 35 -5 4 -46 19 -90 34 -44 15 -87 29 -95 33 -21 8 -49 16 -100 27
-11 3 -24 7 -28 10 -8 5 -25 9 -89 21 -16 3 -41 10 -58 15 -16 5 -43 11 -60
14 -16 3 -41 7 -55 10 -14 4 -43 8 -65 11 -22 3 -51 7 -65 9 -63 12 -154 19
-260 20 l-115 1 -3 -142 c-2 -131 -1 -143 15 -143 58 0 351 -10 365 -13 27 -5
30 -12 23 -51 l-7 -36 -57 6 c-31 3 -69 8 -86 10 -177 22 -422 21 -625 -2 -36
-4 -81 -8 -100 -8 -32 -1 -35 1 -41 37 -3 20 -3 38 0 38 28 6 79 9 221 14 91
3 170 7 175 9 7 2 11 54 10 142 l-1 139 -107 0 c-60 1 -109 0 -110 -1z m123
-139 c0 -28 -5 -47 -12 -50 -7 -2 -74 -6 -148 -9 -74 -3 -163 -11 -198 -17
l-62 -11 5 -32 c3 -17 12 -75 20 -130 7 -54 15 -100 17 -102 2 -2 44 3 93 11
251 41 620 41 870 0 49 -8 90 -13 92 -12 5 6 36 258 31 262 -12 12 -126 26
-253 31 -77 3 -145 7 -151 9 -5 1 -10 22 -9 46 l1 44 105 -1 c191 -2 435 -53
737 -153 141 -47 252 -94 252 -107 0 -2 -9 -22 -20 -44 l-20 -39 -92 43 c-101
47 -288 119 -294 113 -2 -2 -23 -59 -48 -128 l-44 -125 101 -33 c149 -49 382
-151 494 -217 95 -55 272 -172 322 -213 l25 -19 69 96 c38 54 73 105 78 114 8
14 -5 27 -78 76 -49 32 -126 80 -173 106 -47 27 -87 50 -89 52 -8 7 32 84 43
84 15 0 189 -107 264 -162 169 -123 427 -363 540 -501 l56 -70 -34 -28 c-19
-16 -37 -29 -41 -29 -4 0 -36 37 -72 83 -36 45 -96 116 -134 157 l-70 74 -96
-89 c-54 -49 -97 -91 -97 -95 0 -3 33 -39 74 -81 208 -216 378 -453 502 -702
20 -40 37 -73 39 -75 5 -5 235 122 235 131 0 15 -79 152 -145 253 l-66 99 33
27 c18 15 38 28 43 28 6 0 34 -39 64 -86 118 -189 220 -420 304 -694 53 -170
66 -240 46 -240 -8 0 -30 -3 -50 -6 l-36 -6 -8 48 c-8 56 -68 296 -83 335
l-11 27 -129 -41 -129 -40 29 -86 c89 -259 138 -552 141 -843 l2 -118 40 0
c22 0 85 3 139 7 l99 6 -7 110 c-6 104 -21 236 -31 284 -5 19 0 23 41 29 33 5
48 3 54 -6 5 -8 11 -57 15 -109 3 -53 8 -117 11 -143 6 -66 -13 -370 -31 -492
-25 -165 -47 -276 -56 -282 -10 -6 -89 16 -89 26 0 3 13 64 29 136 33 142 51
263 41 269 -3 2 -61 11 -129 21 -136 19 -141 18 -141 -43 0 -45 -36 -251 -66
-376 -36 -148 -118 -374 -190 -521 -15 -31 -25 -58 -23 -60 12 -11 241 -107
246 -103 11 12 83 191 114 285 37 112 33 109 104 82 31 -12 32 -5 -32 -170
-66 -169 -160 -343 -288 -535 -118 -175 -148 -215 -161 -215 -11 0 -64 52 -64
62 0 4 32 47 71 95 93 114 173 233 162 242 -19 18 -206 141 -212 141 -4 0 -39
-49 -79 -109 -149 -227 -322 -421 -537 -605 -44 -37 -80 -71 -80 -76 0 -10
158 -198 167 -199 12 -1 137 110 222 198 43 44 81 81 85 81 3 0 22 -14 41 -30
l35 -30 -100 -96 c-116 -111 -289 -246 -431 -335 -110 -69 -304 -179 -317
-179 -8 0 -37 61 -37 80 0 5 55 37 123 71 126 63 237 126 237 136 0 6 -95 166
-122 205 l-19 28 -32 -24 c-51 -38 -240 -144 -361 -202 -114 -55 -395 -152
-501 -175 -33 -7 -63 -15 -67 -18 -6 -5 57 -249 66 -258 9 -10 234 63 378 122
13 5 22 -3 38 -35 12 -23 18 -46 13 -50 -13 -13 -179 -69 -282 -94 -204 -52
-519 -96 -682 -96 l-59 0 0 50 0 50 153 1 c147 0 250 9 263 21 3 4 0 66 -7
138 l-12 131 -26 -5 c-158 -31 -521 -38 -711 -13 -63 8 -122 15 -130 15 -8 1
-50 8 -94 17 -78 16 -95 13 -99 -16 -2 -8 -7 -20 -12 -28 -5 -8 -9 -40 -10
-70 -1 -31 -7 -66 -13 -78 -8 -14 -9 -24 -2 -28 6 -4 8 -10 6 -14 -3 -4 4 -13
16 -20 16 -10 19 -10 12 1 -6 10 -5 11 7 1 8 -6 47 -13 87 -14 40 -1 72 -5 72
-10 0 -4 46 -7 103 -6 l102 1 0 -55 0 -54 -60 2 c-86 4 -234 23 -314 42 -25 5
-49 8 -53 5 -4 -3 -8 0 -8 6 0 7 -6 10 -13 7 -7 -3 -21 1 -32 9 -15 11 -20 11
-27 1 -6 -9 -8 -9 -8 1 0 6 -7 12 -15 12 -8 0 -15 6 -16 13 0 9 -2 9 -6 0 -3
-10 -8 -9 -20 2 -8 8 -19 13 -24 9 -6 -3 -17 0 -26 8 -12 9 -15 9 -9 1 4 -7 3
-13 -3 -13 -5 0 -11 5 -13 10 -2 6 -14 12 -28 12 -14 1 -28 6 -31 11 -4 5 -19
10 -33 10 -16 0 -33 8 -41 20 -10 15 -15 17 -15 7 0 -12 -2 -12 -9 -2 -4 7
-19 14 -32 16 -13 2 -35 7 -49 12 -14 4 -26 7 -28 5 -2 -1 -12 8 -23 20 -13
15 -19 18 -20 8 0 -10 -2 -11 -6 -1 -2 6 -13 12 -23 12 -11 0 -19 9 -22 25 -3
15 -1 22 5 18 6 -4 8 0 4 10 -4 12 -1 17 10 17 11 0 13 3 5 13 -9 10 -4 13 23
15 19 2 35 -1 35 -5 0 -5 9 -14 21 -21 12 -8 18 -9 15 -3 -4 6 6 4 20 -4 15
-8 31 -12 36 -9 4 3 8 1 8 -3 0 -5 9 -14 21 -21 17 -11 20 -11 14 0 -3 7 2 3
13 -9 15 -17 22 -19 32 -10 10 9 11 9 6 0 -5 -8 -1 -13 9 -13 10 0 13 -5 9
-12 -5 -8 0 -7 11 2 15 12 17 12 10 1 -6 -11 -4 -13 8 -8 9 3 18 -1 21 -10 5
-12 9 -13 21 -3 11 9 15 10 15 1 0 -7 10 -11 23 -9 12 2 21 9 19 16 -1 8 1 11
6 8 4 -2 14 -1 22 5 11 6 11 9 2 9 -8 0 -5 8 8 22 11 12 20 27 20 32 0 6 -5 4
-10 -4 -5 -8 -10 -10 -10 -5 0 6 4 15 9 20 14 14 51 126 46 136 -3 4 -19 10
-36 14 -50 11 -296 113 -409 169 -123 61 -276 155 -398 245 l-86 64 -16 -24
c-8 -12 -43 -61 -76 -108 -47 -65 -59 -89 -51 -99 14 -18 185 -130 270 -176
37 -21 67 -42 67 -48 0 -12 -39 -78 -46 -78 -3 0 -50 28 -105 63 -199 123
-422 313 -601 510 l-91 100 34 28 c19 16 39 28 44 28 6 0 27 -22 47 -48 60
-78 209 -242 225 -248 10 -4 48 27 109 87 l93 94 -127 130 c-70 72 -158 169
-195 216 -78 98 -201 286 -266 410 -24 47 -45 86 -46 88 -4 5 -235 -129 -235
-137 0 -13 107 -189 165 -271 l55 -79 -33 -25 c-19 -14 -39 -26 -44 -26 -30 0
-226 352 -298 535 -35 88 -120 340 -129 381 -7 30 -5 32 29 38 20 4 42 9 49
12 8 3 18 -21 30 -73 32 -134 96 -323 110 -323 12 0 237 78 244 84 1 2 -11 38
-28 81 -90 227 -161 562 -176 838 l-7 119 -126 -7 c-69 -4 -130 -10 -135 -13
-12 -7 1 -173 23 -302 10 -58 16 -108 12 -111 -3 -4 -25 -10 -48 -14 -49 -8
-47 -12 -65 125 -27 206 -8 714 33 873 l10 39 42 -7 c23 -4 45 -9 48 -11 3 -2
-4 -53 -17 -113 -28 -139 -47 -292 -37 -301 7 -6 201 -30 245 -30 13 0 18 14
23 68 10 110 34 270 56 382 23 117 111 390 158 495 17 37 31 71 31 75 0 11
-231 102 -245 96 -14 -5 -74 -163 -110 -290 -14 -50 -27 -91 -29 -93 -4 -5
-96 18 -96 23 0 16 70 216 106 301 77 184 252 495 337 599 l29 34 33 -27 c19
-16 34 -32 34 -36 1 -5 -27 -45 -61 -89 -85 -113 -170 -250 -160 -260 20 -20
217 -136 224 -132 5 3 18 24 30 47 32 63 138 225 220 334 40 54 149 175 243
269 l171 171 -92 97 -92 97 -89 -88 c-50 -48 -115 -117 -145 -152 l-56 -64
-36 28 c-20 15 -36 32 -36 37 0 18 234 245 338 327 148 117 447 311 479 311
10 0 49 -78 42 -83 -2 -2 -49 -27 -104 -56 -145 -77 -256 -151 -248 -164 10
-17 135 -211 138 -215 2 -2 51 29 110 67 139 92 287 175 405 227 111 49 383
144 411 144 11 0 22 6 25 14 5 13 -62 234 -75 249 -9 9 -163 -41 -286 -94 -49
-21 -95 -39 -101 -39 -12 0 -50 77 -42 85 9 10 223 88 303 111 196 56 512 111
648 113 l67 1 0 -45z"/>
<path d="M3270 5919 c-535 -26 -1043 -215 -1470 -548 -112 -87 -293 -263 -392
-381 -233 -277 -420 -640 -513 -995 -66 -251 -79 -358 -80 -660 0 -299 9 -376
70 -625 55 -222 149 -467 234 -610 5 -8 34 -58 64 -110 63 -108 186 -278 254
-351 l46 -49 97 0 c75 0 100 -4 110 -15 7 -8 9 -15 4 -15 -5 0 23 -15 62 -34
63 -30 91 -55 86 -78 -1 -5 2 -8 6 -8 5 0 17 -20 28 -45 10 -25 22 -45 26 -45
4 0 7 -3 6 -7 -2 -8 23 -64 32 -73 3 -3 18 -30 34 -60 35 -66 57 -94 76 -98
20 -5 154 -83 162 -96 4 -6 8 -7 8 -2 0 5 7 2 17 -5 9 -8 19 -13 22 -12 3 1
29 -9 56 -22 66 -31 175 -75 200 -80 11 -3 54 -16 95 -29 41 -14 77 -23 81
-20 4 2 12 -3 19 -11 6 -7 17 -12 25 -9 7 3 16 1 20 -5 3 -6 21 -11 39 -11 18
0 73 -8 122 -19 49 -10 111 -18 138 -19 27 0 51 -4 55 -9 15 -22 471 -21 631
1 141 20 302 56 410 91 25 8 53 15 63 15 9 0 17 4 17 9 0 5 16 12 35 15 19 4
47 13 62 21 15 8 33 15 40 15 6 0 24 7 40 15 15 8 75 37 133 65 132 64 218
113 323 186 105 73 257 195 257 206 0 5 -11 30 -24 57 l-25 48 30 29 c16 15
29 34 29 41 0 10 23 13 94 13 l95 0 69 82 c135 162 242 327 342 530 33 67 60
129 60 138 0 8 6 24 14 35 41 59 132 401 163 610 25 169 25 512 0 695 -95 697
-485 1345 -1057 1756 -395 284 -891 460 -1350 480 -69 3 -132 6 -140 7 -8 1
-76 -1 -150 -4z m-325 -2178 c-3 -6 -10 -9 -15 -6 -5 3 -15 -6 -23 -21 -12
-24 -15 -25 -21 -8 -4 10 -4 15 0 11 4 -4 14 2 21 13 8 11 19 18 24 15 5 -4 9
-1 9 6 0 7 3 10 6 6 3 -3 3 -11 -1 -16z m38 -8 c-3 -7 -6 -13 -8 -13 -2 0 -5
6 -8 13 -3 8 1 14 8 14 7 0 11 -6 8 -14z m22 -2 c-3 -6 2 -14 11 -19 9 -5 15
-12 15 -15 -1 -4 2 -7 5 -6 4 0 12 -9 18 -19 6 -11 21 -33 33 -49 16 -22 18
-30 8 -30 -8 0 -12 4 -9 8 2 4 -18 33 -46 65 -42 48 -54 74 -34 74 3 0 3 -4
-1 -9z m-127 -46 c-3 -3 -9 2 -12 12 -6 14 -5 15 5 6 7 -7 10 -15 7 -18z m-24
-19 c-7 -18 -34 -22 -34 -5 0 5 5 7 10 4 6 -3 13 1 16 10 4 9 8 14 10 12 3 -2
2 -12 -2 -21z m-42 -42 c-12 -8 -20 -19 -18 -23 3 -4 -5 -7 -17 -8 -12 0 -16
1 -9 4 6 3 9 10 5 16 -3 7 -3 9 2 5 4 -4 14 -1 22 7 8 8 20 15 26 15 6 0 1 -7
-11 -16z m-55 -59 c0 -8 -7 -15 -15 -15 -12 0 -12 3 -2 15 7 8 13 15 15 15 1
0 2 -7 2 -15z m369 6 c-3 -5 4 -20 15 -35 11 -14 17 -26 12 -26 -8 0 -43 52
-43 64 0 3 5 6 11 6 5 0 8 -4 5 -9z m-396 -51 c0 -5 -4 -10 -10 -10 -5 0 -10
5 -10 10 0 6 5 10 10 10 6 0 10 -4 10 -10z m450 -64 c0 -12 -5 -7 -19 24 -11
24 -11 24 3 6 9 -11 16 -24 16 -30z m-487 7 c-23 -37 -28 -42 -18 -18 4 11 8
26 8 33 0 6 6 12 14 12 10 0 10 -6 -4 -27z m507 -57 c0 -3 -4 -8 -10 -11 -5
-3 -10 -1 -10 4 0 6 5 11 10 11 6 0 10 -2 10 -4z m-553 -92 c-3 -3 -12 -4 -19
-1 -8 3 -5 6 6 6 11 1 17 -2 13 -5z m-19 -109 c-3 -3 -9 2 -12 12 -6 14 -5 15
5 6 7 -7 10 -15 7 -18z m16 -23 c3 -5 -1 -9 -9 -9 -8 0 -12 4 -9 9 3 4 7 8 9
8 2 0 6 -4 9 -8z m-10 -68 c3 -8 2 -12 -3 -9 -6 3 -13 0 -18 -7 -4 -7 -17 -21
-29 -31 -17 -14 -21 -14 -21 -2 0 8 4 12 8 9 4 -2 18 9 31 25 28 36 25 34 32
15z m593 -9 c0 -8 -4 -12 -9 -9 -5 3 -6 10 -3 15 9 13 12 11 12 -6z m-673
-151 c3 -8 2 -12 -4 -9 -6 3 -10 10 -10 16 0 14 7 11 14 -7z m696 -88 c0 -3
-4 -8 -10 -11 -5 -3 -10 -1 -10 4 0 6 5 11 10 11 6 0 10 -2 10 -4z m-715 -46
c-3 -5 -1 -10 6 -10 7 0 10 -3 6 -6 -9 -9 -28 6 -22 17 4 5 8 9 11 9 3 0 2 -4
-1 -10z m702 -5 c0 -8 -4 -12 -9 -9 -5 3 -6 10 -3 15 9 13 12 11 12 -6z m-721
-180 c-1 -8 -8 -21 -16 -28 -10 -10 -11 -9 -4 3 5 8 9 18 10 23 3 14 4 17 8
17 2 0 3 -7 2 -15z m-6 -150 c0 -2 -6 -8 -13 -14 -10 -8 -14 -7 -14 2 0 8 6
14 14 14 7 0 13 -1 13 -2z m-42 -220 c-3 -3 -9 2 -12 12 -6 14 -5 15 5 6 7 -7
10 -15 7 -18z m-13 -144 c-3 -6 -11 -11 -16 -11 -5 0 -4 6 3 14 14 16 24 13
13 -3z m-31 -267 c3 -8 2 -12 -4 -9 -6 3 -10 10 -10 16 0 14 7 11 14 -7z m-14
-188 c0 -2 -7 -7 -16 -10 -8 -3 -12 -2 -9 4 6 10 25 14 25 6z m788 -181 c-3
-3 -9 2 -12 12 -6 14 -5 15 5 6 7 -7 10 -15 7 -18z m42 -105 c6 -11 8 -20 6
-20 -3 0 -10 9 -16 20 -6 11 -8 20 -6 20 3 0 10 -9 16 -20z m18 -55 c-3 -3 -9
2 -12 12 -6 14 -5 15 5 6 7 -7 10 -15 7 -18z m95 -235 c3 -11 1 -18 -4 -14 -5
3 -9 12 -9 20 0 20 7 17 13 -6z m42 -110 c3 -5 1 -10 -4 -10 -6 0 -11 5 -11
10 0 6 2 10 4 10 3 0 8 -4 11 -10z m43 -115 c-3 -3 -9 2 -12 12 -6 14 -5 15 5
6 7 -7 10 -15 7 -18z m36 -91 c3 -8 2 -12 -4 -9 -6 3 -10 10 -10 16 0 14 7 11
14 -7z"/>
</g>
</svg>
